<?xml version="1.0" encoding="utf-8"?><svg xmlns="http://www.w3.org/2000/svg" xmlns:xlink="http://www.w3.org/1999/xlink"><symbol viewBox="0 0 512 512" id="arrowDown" xmlns="http://www.w3.org/2000/svg"><path d="M374.108 373.328c-7.829-7.792-20.492-7.762-28.284.067L276 443.557V20c0-11.046-8.954-20-20-20s-20 8.954-20 20v423.558l-69.824-70.164c-7.792-7.829-20.455-7.859-28.284-.067-7.83 7.793-7.859 20.456-.068 28.285l104 104.504.019.018c7.792 7.809 20.496 7.834 28.314.001l.019-.018 104-104.504c7.79-7.828 7.763-20.492-.068-28.285z"/></symbol><symbol viewBox="0 0 512 512" id="arrowUp" xmlns="http://www.w3.org/2000/svg"><path d="M374.176 110.386l-104-104.504-.019-.018c-7.818-7.832-20.522-7.807-28.314.002l-.019.018-104 104.504c-7.791 7.829-7.762 20.493.068 28.285 7.829 7.792 20.492 7.762 28.284-.067L236 68.442V492c0 11.046 8.954 20 20 20s20-8.954 20-20V68.442l69.824 70.162c7.792 7.829 20.455 7.859 28.284.067 7.831-7.793 7.858-20.457.068-28.285z"/></symbol><symbol viewBox="0 0 512 512" id="check" xmlns="http://www.w3.org/2000/svg"><path d="M504.502 75.496c-9.997-9.998-26.205-9.998-36.204 0L161.594 382.203 43.702 264.311c-9.997-9.998-26.205-9.997-36.204 0-9.998 9.997-9.998 26.205 0 36.203l135.994 135.992c9.994 9.997 26.214 9.99 36.204 0L504.502 111.7c9.998-9.997 9.997-26.206 0-36.204z"/></symbol><symbol fill="none" viewBox="0 0 16 17" id="circle" xmlns="http://www.w3.org/2000/svg"><path d="M16 8.188c0 2.103-.832 4.08-2.343 5.566A8.014 8.014 0 0 1 8 16.06a8.046 8.046 0 0 1-4.172-1.153l.917-.902A6.795 6.795 0 0 0 8 14.83c3.722 0 6.75-2.98 6.75-6.642 0-1.16-.305-2.252-.838-3.202l.917-.903A7.727 7.727 0 0 1 16 8.188zM.91 16.033l-.883-.87 1.891-1.86A7.738 7.738 0 0 1 0 8.188C0 6.086.832 4.11 2.343 2.623A8.014 8.014 0 0 1 8 .317c1.927 0 3.75.666 5.198 1.888L15.089.344l.884.87L.911 16.033zm1.898-3.606l9.5-9.347A6.785 6.785 0 0 0 8 1.547c-3.722 0-6.75 2.98-6.75 6.641 0 1.61.586 3.088 1.558 4.24z" fill="#777"/></symbol><symbol fill="none" viewBox="0 0 16 16" id="clubok" xmlns="http://www.w3.org/2000/svg"><path d="M14.528 13.054H10.49a7 7 0 0 0 3.5-6.058A7.004 7.004 0 0 0 6.997 0 7.004 7.004 0 0 0 0 6.996a7.004 7.004 0 0 0 6.996 6.996h7.532a.536.536 0 0 1 0 1.07H8A.469.469 0 1 0 8 16h6.528a1.472 1.472 0 1 0 0-2.946zm-7.532 0c-.262 0-.52-.017-.774-.05l5.122-2.956.646.373a6.056 6.056 0 0 1-4.994 2.633zM3.598 12.01L9.17 8.792l1.236.714-5.5 3.176a6.043 6.043 0 0 1-1.308-.673zm-.482-9.663a6.075 6.075 0 0 1 1.237-.8V7.98l-1.237.714V2.346zm2.175-1.164c.396-.116.81-.194 1.236-.227v5.77l-1.236.714V1.182zm7.763 5.814c0 .147-.005.292-.016.437L7.465 4.215V2.787l5.5 3.176c.059.336.09.68.09 1.033zm-5.59-1.699l5.42 3.129c-.1.412-.243.809-.423 1.184L7.465 6.725V5.297zm5.122-.636L7.465 1.704V.955a6.072 6.072 0 0 1 5.121 3.706zM2.18 3.326v5.91l-.648.374a6.022 6.022 0 0 1-.593-2.614 6.03 6.03 0 0 1 1.241-3.67zm-.178 7.095l4.995-2.884 1.236.714-5.415 3.127A6.109 6.109 0 0 1 2 10.42z" fill="#777"/></symbol><symbol viewBox="0 0 512 512" id="filter" xmlns="http://www.w3.org/2000/svg"><path d="M191.8 480.6V306.3L14.5 42.8C7.3 34.5 10.4 11.7 31.4 11h449.2c12.2 0 27.7 14.4 16.9 31.8L320.2 306.3v108.2c0 6.4-3 12.4-8.1 16.3l-87.6 66.1c-5 5.6-30.1 9.3-32.7-16.3zM69.8 51.8l159.4 236.9c2.3 3.4 3.5 7.3 3.5 11.4v139.6l46.8-35.3V300.1c0-4.1 1.2-8 3.5-11.4L442.2 51.8H69.8z"/></symbol><symbol fill="none" viewBox="0 0 14 16" id="game" xmlns="http://www.w3.org/2000/svg"><path d="M13.228 13.612H8.897V2.388h1.694v4.44c-.51.118-.891.599-.891 1.172 0 .662.509 1.2 1.135 1.2S11.97 8.662 11.97 8c0-.573-.382-1.054-.89-1.172v-4.44h1.488c.425 0 .772-.366.772-.816V.816c0-.45-.347-.816-.773-.816H1.433C1.007 0 .66.366.66.816v.756c0 .45.347.816.773.816h3.67v11.224H.773c-.427 0-.773.366-.773.816v.755c0 .45.346.817.772.817h12.456c.426 0 .772-.366.772-.816v-.756c0-.45-.346-.816-.772-.816zM11.482 8c0 .377-.29.684-.647.684-.357 0-.647-.307-.647-.684 0-.377.29-.684.647-.684.357 0 .647.307.647.684zM1.432 1.572V.816c0-.165.24-.222.396-.222h10.575c.157 0 .284.057.284.222v.756c0 .165-.127.21-.284.21H1.828c-.157 0-.395-.045-.395-.21zM5.735 11.78h.274s.244-.115.244-.258a.251.251 0 0 0-.244-.258h-.274V9.432H8.31c.135 0 .96-.147.312-.29.648-.142-.177-.226-.312-.226H5.734V7.084h2.258c.135 0-.244-.115-.244-.258 0-.143.379-.258.244-.258H5.734v-4.18H8.31V4.22H5.521c-.134 0 0-.027 0 .115 0 .401-.142.401-.142.401H8.31v1.832h-.318a.251.251 0 0 0-.244.258c0 .143.11.258.244.258h.318v4.18H6.008c-.135 0 .244.115.244.258 0 .143-.379.258-.244.258H8.31v1.832H5.734V11.78zm7.669 3.404c0 .165-.246.207-.403.207H.91c-.158 0-.285-.042-.285-.207v-.756c0-.165.127-.21.284-.21h12.21c.156 0 .284.045.284.21v.756z" fill="#777"/></symbol><symbol fill="none" viewBox="0 0 16 16" id="home" xmlns="http://www.w3.org/2000/svg"><path d="M15.863 7.167L9.189.492A1.67 1.67 0 0 0 8 0c-.45 0-.871.175-1.188.492L.137 7.167a.468.468 0 0 0 0 .663l.503.501c.53.531 1.26.656 1.87.477v6.723c0 .26.21.469.47.469h10.04c.26 0 .47-.21.47-.469V8.808c.61.18 1.34.054 1.87-.477l.503-.501a.47.47 0 0 0 0-.663zm-3.31 1.027v4.86h-2.076v-3.046A2.475 2.475 0 0 0 8 7.531a2.475 2.475 0 0 0-2.477 2.477v3.046H3.448v-4.86L8 3.642l4.552 4.552zm-9.105 5.798h2.075v1.07H3.448v-1.07zm3.012 1.07v-5.054a1.538 1.538 0 1 1 3.08 0v5.055H6.46zm4.017 0v-1.07h2.075v1.07h-2.075zm4.22-7.393a.95.95 0 0 1-1.345 0l-.009-.01-5.012-5.011a.469.469 0 0 0-.662 0L2.657 7.66a.95.95 0 0 1-1.354.009l-.171-.171 6.343-6.343c.29-.29.76-.29 1.05 0l6.343 6.343-.17.17z" fill="#777"/></symbol><symbol fill="none" viewBox="0 0 21 18" id="lapa" xmlns="http://www.w3.org/2000/svg"><path d="M16.425 6.662c-2.8 1.606-2.323 6.293.714 6.293 1.31 0 2.444-.985 2.948-2.244 1.166-2.907-1.258-5.428-3.662-4.049zm-2.875.58c3.359 0 4.365-5.704 1.173-6.642-1.454-.427-3.107.598-3.638 2.472-.596 2.1.576 4.17 2.465 4.17z" fill="#FF7236"/><path d="M12.685 17.396c-.466-.129-1.294-.212-2.16-.224-.917-.013-1.876.052-2.497.224-1.676.467-3.956-.662-3.456-3.009.463-2.168 2.126-2.045 2.52-4.1.395-2.078 1.935-3.08 3.432-3.002 1.386.073 2.734 1.072 3.101 3.002.391 2.057 2.05 1.932 2.513 4.1.502 2.348-1.783 3.472-3.453 3.01zM7.637 7.243c.95 0 1.766-.552 2.22-1.397C11.205 3.335 8.99-.142 6.463.602c-3.197.94-2.183 6.64 1.174 6.64z" fill="#FF7236"/><path d="M6.119 11.087C7.197 8.448 4.64 5.224 2.199 6.24c-2.941 1.221-1.644 6.49 1.59 6.49 1.038 0 1.92-.638 2.33-1.642zm6.566 6.309c-.466-.129-1.294-.212-2.16-.224V7.285c1.385.073 2.733 1.072 3.1 3.002.391 2.057 2.05 1.932 2.513 4.1.502 2.348-1.783 3.472-3.453 3.01z" fill="#FF7236"/></symbol><symbol fill="none" viewBox="0 0 16 12" id="latok" xmlns="http://www.w3.org/2000/svg"><path d="M15.995 3.362C15.903 1.477 14.458 0 12.705 0h-9.41C1.542 0 .097 1.477.005 3.362.002 3.425 0 10.377 0 10.377 0 11.272.675 12 1.505 12h12.99c.83 0 1.505-.728 1.505-1.623 0 0-.002-6.952-.005-7.015zM3.295.75h9.41c1.258 0 2.315.964 2.55 2.257h-.715c-.224-.885-.966-1.507-1.835-1.507H8.148c-.192 0 .348.168.348.375s-.54.375-.348.375h4.557c.483 0 .905.304 1.098.757h-.347c-.867 0-1.579.734-1.627 1.657a11.937 11.937 0 0 0-3.83-.621c-1.306 0-2.612.207-3.828.62-.048-.922-.76-1.656-1.628-1.656h-.346c.192-.453.614-.757 1.098-.757h4.853c.192 0 .348-.168.348-.375S8.34 1.5 8.148 1.5H3.295c-.869 0-1.611.622-1.835 1.507H.745C.98 1.714 2.037.75 3.295.75zm8.531 4.702v1.273c0 .556-.42 1.008-.935 1.008H5.11c-.516 0-.935-.452-.935-1.008V5.452c2.414-.88 5.238-.88 7.652 0zm3.478 4.925c0 .481-.363.873-.809.873H1.505c-.446 0-.81-.392-.81-.873v-6.62h1.848c.516 0 .935.452.935 1.008v1.96c0 .97.732 1.758 1.63 1.758h6.32c.4 0 1.094-.474 1.094-1.758v-1.96c0-.556.419-1.008.934-1.008h1.848v6.62z" fill="#777"/></symbol><symbol fill="none" viewBox="0 0 63 52" id="logo" xmlns="http://www.w3.org/2000/svg"><path d="M7.9 48.483c-.081-.973-.661-1.928-2.257-2.01.983-.13 2.337-2.397 1.757-4.082-.484-1.361-1.935-.827-2.79-.567-.16 1.296.21 3.677-1.224 3.985-.065-.68.064-1.814-.113-2.997-.339-1.96-2.725-1.053-3.273-.81.21 2.17.177 2.754.177 5.363.017.89-.08 2.3 0 3.062.226 2.025 2.628 1.49 3.29.794 0-.86-.017-2.609-.065-3.581 1.064-.081 1.257.227 1.29 2.495.016 2.268 2.692 1.847 3.482 1.07-.274-.843-.194-1.913-.274-2.722zm1.398-1.669c0 4.698 2.418 5.087 4.111 5.038 1.564 0 4.127-.437 4.143-5.038-.016-3.937-1.757-5.33-4.095-5.33-2.466 0-4.159 1.522-4.159 5.33zm4.16-2.69c.177 0 .854-.259.854 2.576 0 1.847-.29 2.9-.87 2.9-.484 0-.871-.437-.823-2.9 0-2.236.564-2.576.838-2.576zm7.412.341c0 .923-.017 1.944.031 5.087.017 1.264.065 2.3 1.516 2.268 1.29 0 1.612-.518 1.757-.68.049-1.41-.048-4.488-.08-6.627.354 0 .693 0 1-.016 1.03-.032 1.386-.648 1.37-1.507-.017-.972-.807-1.49-1.903-1.49h-3.063c-2.434.016-2.596.016-2.789 0-.451 1.911-.177 2.932 1.677 2.965h.483zm12.234-2.901c-1.129-.113-3.853-.064-5.74.017.21 2.154.226 4.925.194 6.885.032 1.88-.129 3.192 1.838 3.322 1.29.097 2.015.097 3.176 0 1.58-.13 2.224-.989 1.467-2.868-1.306.194-2.515.243-3.273.097 0-.227-.032-.94 0-1.118.726 0 1.516-.032 2.209-.032 1.435 0 1.29-2.317-.016-2.317-.935-.049-1.355.049-2.225-.032v-1.28c.983-.081 1.419-.033 2.24 0 1.549.048 1.549-2.35.13-2.674zm5.036-3.532c-1.064.697-1 1.75-.242 2.382.854.616 2.53.421 3.66-.081 1.031-.47 1.434-1.54.338-2.333-1.628.859-2.708.421-3.756.032zm5.739 4.91c0-.973-.613-1.442-1.58-1.442-1.129 0-1.709.291-2.047 1.328-.404 1.264-1 3.208-1.339 4.553 0-.584.097-4.018.097-4.44 0-1.069-.564-1.441-1.515-1.441-.661 0-1.838.42-1.838.42.097.73.177 1.151.194 2.107.032 1.005 0 2.608.096 5.784.048 1.555.548 2.074 1.806 2.025 2.257-.08 2.402-4.26 3.014-5.784 0 .697-.032 3.11-.032 3.921 0 1.102.097 1.863 1.37 1.863 1.097 0 1.726-.372 1.919-.713-.129-.486-.177-3.434-.177-5.751 0-1.021.016-1.912.032-2.43zm9.339 5.541c-.08-.973-.66-1.928-2.257-2.01.984-.13 2.338-2.397 1.758-4.082-.484-1.361-1.935-.827-2.79-.567-.16 1.296.21 3.677-1.224 3.985-.065-.68.064-1.814-.113-2.997-.339-1.96-2.725-1.053-3.273-.81.21 2.17.177 2.754.177 5.363.017.89-.08 2.3 0 3.062.226 2.025 2.628 1.49 3.29.794 0-.86-.017-2.609-.065-3.581 1.064-.081 1.257.227 1.29 2.495.015 2.268 2.692 1.847 3.481 1.07-.274-.843-.193-1.913-.274-2.722zM63 51.14c-.226-.632-.21-.94-.258-1.848-.129-2.365-.161-4.65-.935-6.22-1.306-2.318-4.675-1.686-6.303-.52-.145 2.803-.629 3.954-.935 7.08-.226 2.285 1.676 2.917 3.45 1.8 0-.276 0-1.232.08-1.459.21 0 1 .016 1.306.016 0 0-.08.94.37 1.442.807.924 2.66.648 3.225-.291zm-4.788-3.192c.113-.875.113-2.69.161-3.078.08-.065.63-.033.694.048.193.762.193 2.155.241 3.03h-1.096z" fill="#1A212F"/><path d="M39 6.995L45.576.42C46.47-.476 48 .158 48 1.423v17.573c0-5.7-4.513-9.166-9-12z" fill="#FF7236"/><path d="M48 18.997c0 8.837-7.163 16.001-16 16.001-8.836 0-16-7.164-16-16.001 0-8.838 7.164-15.002 16-15.002 8.837 0 16 6.164 16 15.002z" fill="#FFAA50"/><path d="M25 18.996c0-7.701 4.422-13.37 10.31-14.7A18.328 18.328 0 0 0 32 3.995c-2.944 0-5.694.697-8.063 1.937L18.424.419C17.53-.476 16 .158 16 1.423v17.573c0-.36 0-.358 0 0 0 8.838 7.163 16.002 16 16.002 1.135 0 2.242-.122 3.31-.347C29.422 33.125 25 26.698 25 18.996z" fill="#FF7236"/><path d="M28.5 28.997c1.933 0 3.5-1.343 3.5-3s-1.567-3-3.5-3-3.5 1.343-3.5 3 1.567 3 3.5 3zm7 0c1.933 0 3.5-1.343 3.5-3s-1.567-3-3.5-3-3.5 1.343-3.5 3 1.567 3 3.5 3z" fill="#FFFDFB"/><path d="M32 25.998a2 2 0 1 0 0-4 2 2 0 0 0 0 4z" fill="#FF913C"/><path d="M26 19.997a1 1 0 0 1-1-1v-1a1 1 0 1 1 2 0v1a1 1 0 0 1-1 1zm12 0a1 1 0 0 1-1-1v-1a1 1 0 1 1 2 0v1a1 1 0 0 1-1 1z" fill="#1A212F"/></symbol><symbol viewBox="0 0 512.01 512.01" id="up" xmlns="http://www.w3.org/2000/svg"><path d="M505.755 358.256L271.088 123.589c-8.341-8.341-21.824-8.341-30.165 0L6.256 358.256c-8.341 8.341-8.341 21.824 0 30.165s21.824 8.341 30.165 0l219.584-219.584 219.584 219.584a21.275 21.275 0 0 0 15.083 6.251 21.275 21.275 0 0 0 15.083-6.251c8.341-8.341 8.341-21.824 0-30.165z"/></symbol></svg>